<?xml version="1.0" encoding="utf-8"?>
<svg style="" class="icon" data-spm-anchor-id="a313x.7781069.0.i25" height="128" id="mx_n_1530156361864" p-id="11548"
    t="1530156361864" version="1.1" viewBox="0 0 1024 1024" width="128"
    xmlns="http://www.w3.org/2000/svg">
    <defs />
    <ellipse style="fill: rgb(255, 255, 255);" cx="511.022" cy="508.091" rx="458.26" ry="390.84" />
    <path
        d="M512 0C229.234472 0 0 229.226146 0 512S229.234472 1024 512 1024 1024 794.773854 1024 512 794.765528 0 512 0zM510.609691 774.243902c-144.833561 0-262.243902-117.418667-262.243902-262.252228 0-20.887935 2.514211-41.176455 7.126374-60.657431-44.698016 16.259122-115.354016 81.462114-115.354016 81.462114L87.414634 427.341008c47.90322-68.075187 169.093203-42.233756 190.855285-36.938927C322.102114 306.817041 409.666602 249.756098 510.609691 249.756098c57.385626 0 110.408846 18.481951 153.575024 49.75974l-24.892358-14.161171c0 0-1.21548 2.131252-3.879545 6.360455-9.365854 14.818862-35.465366 52.856715-74.210862 86.498862-38.845398 33.792-89.545886 62.630504-148.796358 62.563902-36.456065-0.033301-76.824976-10.672911-121.564618-39.13678l-17.890862 28.097561c49.127024 31.369366 96.222699 44.356683 139.28065 44.356683l0.174829 0c67.825431-0.116553 123.795772-31.377691 165.738146-66.618276 17.63278 25.142114 63.271545 71.28039 156.871805 71.28039l0.740943 0c10.914341 0 22.469724-0.657691 34.62452-1.956423 1.565138 11.522081 2.472585 23.252293 2.472585 35.207285C772.845268 656.825236 655.434927 774.243902 510.609691 774.243902zM770.03135 457.569821l-1.565138-14.044618c-11.705236 1.298732-22.569626 1.906472-32.718049 1.906472-55.753886-0.099902-89.162927-17.699382-109.518049-34.582894-10.156748-8.483382-16.958439-16.900163-21.137691-23.060813-0.807545-1.173854-1.42361-2.172878-2.03135-3.163577 39.578016-39.553041 62.205919-77.749073 64.878309-82.311285 32.709724 24.600976 59.533528 56.611382 77.84065 93.625236 21.911935-5.32813 142.94374-31.069659 190.813659 36.947252l-52.723512 105.45535C883.861854 538.349268 814.787642 474.678114 770.03135 457.569821zM612.135545 579.417496c13.794862 0 24.97561-9.940293 24.97561-22.203317s-11.180748-22.203317-24.97561-22.203317-24.97561 9.940293-24.97561 22.203317S598.340683 579.417496 612.135545 579.417496zM415.102959 579.417496c13.794862 0 24.97561-9.940293 24.97561-22.203317s-11.180748-22.203317-24.97561-22.203317-24.97561 9.940293-24.97561 22.203317S401.308098 579.417496 415.102959 579.417496zM510.626341 691.841041c-32.168585 0.058276-58.59278-15.75961-77.532618-32.584846-9.390829-8.350179-16.758634-16.825236-21.645528-23.094114-2.455935-3.155252-4.312455-5.736065-5.502959-7.476033-1.198829-1.756618-1.598439-2.455935-1.615089-2.439285l-28.422244 17.341398c0.574439 0.865821 12.521106 20.48 35.049106 40.552065 22.428098 19.955512 56.228423 40.96 99.669333 41.009951l0.166504 0c42.708293 0 91.826992-20.912911 143.942764-76.009106l-24.143089-22.910959C582.148163 677.08878 542.187187 691.774439 510.626341 691.841041z"
        fill="#ff392b" p-id="11549" />
</svg>